<svg width="387" height="419" viewBox="0 0 387 419" fill="none" xmlns="http://www.w3.org/2000/svg">
<g clip-path="url(#clip0_651_382)">
<path d="M330.282 293.987V259.633C330.282 253.373 325.232 248.32 318.976 248.32H244.471C238.215 248.32 233.165 243.267 233.165 237.007V202.728C233.165 196.468 238.215 191.415 244.471 191.415H277.371C283.627 191.415 288.677 186.362 288.677 180.102V154.27C288.677 148.011 293.727 142.957 299.982 142.957H325.76C332.016 142.957 337.066 137.904 337.066 131.644V97.2901C337.066 91.0302 332.016 85.977 325.76 85.977H291.428C285.172 85.977 280.122 91.0302 280.122 97.2901V123.122C280.122 129.382 275.072 134.435 268.816 134.435H253.628C244.961 134.435 239.458 125.045 243.83 117.541C251.028 105.172 254.91 90.6531 254.307 75.1918C252.724 35.2565 220.351 2.25993 180.479 0.110438C135.331 -2.34074 97.9088 33.635 97.9088 78.284C97.9088 92.4632 101.677 105.737 108.273 117.201C112.682 124.856 107.481 134.435 98.6249 134.435H59.695C53.4391 134.435 48.3891 139.488 48.3891 145.748V171.58C48.3891 177.839 43.3392 182.893 37.0833 182.893H11.3059C5.04996 182.893 0 187.946 0 194.206V228.56C0 234.82 5.04996 239.873 11.3059 239.873H45.638C51.8939 239.873 56.9439 234.82 56.9439 228.56V202.728C56.9439 196.468 61.9939 191.415 68.2498 191.415H108.046C114.302 191.415 119.352 196.468 119.352 202.728V305.074H119.39V305.301H119.352V305.074H73.752C67.496 305.074 62.4461 310.127 62.4461 316.387V362.055H62.5215V407.684C62.5215 413.944 67.5714 418.997 73.8273 418.997H108.16C114.415 418.997 119.465 413.944 119.465 407.684V362.055H119.352L119.465 362.017L164.99 362.055C171.246 362.055 176.296 357.001 176.296 350.742V316.614C176.296 310.354 181.346 305.301 187.602 305.301H261.919C268.175 305.301 273.225 310.354 273.225 316.614V350.968C273.225 357.228 278.275 362.281 284.531 362.281H375.694C381.95 362.281 387 357.228 387 350.968V316.614C387 310.354 381.95 305.301 375.694 305.301H341.588C335.332 305.301 330.282 300.247 330.282 293.987ZM176.145 132.889C145.996 132.889 121.576 108.415 121.576 78.284C121.576 48.1535 145.996 23.6794 176.145 23.6794C206.294 23.6794 230.715 48.1157 230.715 78.284C230.715 108.452 206.257 132.889 176.145 132.889Z" fill="white"/>
</g>
<defs>
<clipPath id="clip0_651_382">
<rect width="387" height="419" fill="white"/>
</clipPath>
</defs>
</svg>
